<svg width="32" height="32" viewBox="0 0 32 32" fill="none" xmlns="http://www.w3.org/2000/svg">
<g clip-path="url(#clip0_8_113)">
<path d="M16 2.66667C8.63996 2.66667 2.66663 8.64 2.66663 16C2.66663 23.36 8.63996 29.3333 16 29.3333C23.36 29.3333 29.3333 23.36 29.3333 16C29.3333 8.64 23.36 2.66667 16 2.66667ZM21.3333 17.3333H17.3333V21.3333C17.3333 22.0667 16.7333 22.6667 16 22.6667C15.2666 22.6667 14.6666 22.0667 14.6666 21.3333V17.3333H10.6666C9.93329 17.3333 9.33329 16.7333 9.33329 16C9.33329 15.2667 9.93329 14.6667 10.6666 14.6667H14.6666V10.6667C14.6666 9.93334 15.2666 9.33334 16 9.33334C16.7333 9.33334 17.3333 9.93334 17.3333 10.6667V14.6667H21.3333C22.0666 14.6667 22.6666 15.2667 22.6666 16C22.6666 16.7333 22.0666 17.3333 21.3333 17.3333Z" fill="black"/>
</g>
<defs>
<clipPath id="clip0_8_113">
<rect width="32" height="32" fill="white"/>
</clipPath>
</defs>
</svg>
